<?xml version="1.0" encoding="utf-8"?>
<!-- Generator: Adobe Illustrator 23.0.2, SVG Export Plug-In . SVG Version: 6.00 Build 0)  -->
<svg version="1.1" id="Camada_1" xmlns="http://www.w3.org/2000/svg" xmlns:xlink="http://www.w3.org/1999/xlink" x="0px" y="0px"
	 viewBox="0 0 21.1 21.1" style="enable-background:new 0 0 21.1 21.1;" xml:space="preserve">
<style type="text/css">
</style>
<g id="Grupo_3288" transform="translate(-1151.337 -759.917)">
	<path id="Caminho_5492" class="st0" d="M1159.6,762c-0.3,0.3-0.5,0.6-0.7,1c-0.2,0.4-0.2,0.8-0.2,1.2c0,0.4,0.1,0.8,0.2,1.2
		c0.2,0.4,0.4,0.7,0.7,1c0.3,0.3,0.6,0.5,1,0.7c0.8,0.3,1.6,0.3,2.4,0c0.4-0.2,0.7-0.4,1-0.7c0.3-0.3,0.5-0.6,0.7-1
		c0.2-0.4,0.2-0.8,0.2-1.2c0-0.4-0.1-0.8-0.2-1.2c-0.2-0.4-0.4-0.7-0.7-1c-0.3-0.3-0.6-0.5-1-0.7c-0.8-0.3-1.6-0.3-2.4,0
		C1160.2,761.5,1159.9,761.7,1159.6,762z M1158.9,767.2c-1.6-1.6-1.6-4.3,0-5.9c1.6-1.6,4.3-1.6,5.9,0c1.6,1.6,1.6,4.3,0,5.9
		c-0.8,0.8-1.8,1.2-3,1.2C1160.7,768.4,1159.6,768,1158.9,767.2L1158.9,767.2z M1168.1,779.8v-3.1c0-0.3,0-0.7-0.1-1
		c-0.1-0.3-0.2-0.7-0.3-1c-0.1-0.3-0.3-0.6-0.5-0.9c-0.2-0.3-0.4-0.5-0.6-0.8c-0.2-0.2-0.5-0.5-0.8-0.6c-0.3-0.2-0.6-0.3-0.9-0.5
		c-0.3-0.1-0.6-0.3-1-0.3c-0.3-0.1-0.7-0.1-1-0.1h-2.1c-0.3,0-0.7,0-1,0.1c-0.3,0.1-0.7,0.2-1,0.3c-0.3,0.1-0.6,0.3-0.9,0.5
		c-0.3,0.2-0.5,0.4-0.8,0.6c-0.2,0.2-0.5,0.5-0.6,0.8c-0.2,0.3-0.3,0.6-0.5,0.9c-0.1,0.3-0.3,0.6-0.3,1c-0.1,0.3-0.1,0.7-0.1,1v3.1
		L1168.1,779.8z M1162.9,770.5c0.8,0,1.7,0.2,2.4,0.5c1.5,0.6,2.7,1.8,3.3,3.3c0.3,0.8,0.5,1.6,0.5,2.4v3.5c0,0.2-0.1,0.4-0.2,0.5
		c-0.1,0.1-0.3,0.2-0.5,0.2h-13.2c-0.2,0-0.3-0.1-0.5-0.2c-0.1-0.1-0.2-0.3-0.2-0.5v-3.5c0-0.8,0.2-1.7,0.5-2.4
		c0.6-1.5,1.8-2.7,3.3-3.3c0.8-0.3,1.6-0.5,2.4-0.5L1162.9,770.5z"/>
</g>
</svg>
