<?xml version="1.0" encoding="utf-8"?>
<!-- Generator: Adobe Illustrator 23.0.2, SVG Export Plug-In . SVG Version: 6.00 Build 0)  -->
<svg version="1.1" id="Camada_1" xmlns="http://www.w3.org/2000/svg" xmlns:xlink="http://www.w3.org/1999/xlink" x="0px" y="0px"
	 viewBox="0 0 21.1 21.1" style="enable-background:new 0 0 21.1 21.1;" xml:space="preserve">
<style type="text/css">
	.st0{fill:#2394BC;}
	.st1{fill:#EFC75E;}
</style>
<g id="Grupo_2556" transform="translate(-45 -397)">
	<g id="visa_1_" transform="translate(45 296.77)">
		<g id="Grupo_2476" transform="translate(5.513 100.23)">
			<g id="Grupo_2475" transform="translate(0 0)">
				<path id="Caminho_2252" class="st0" d="M3.1,7.3l-1,6.5h1.7l1-6.5H3.1z M8.2,9.9C7.6,9.6,7.2,9.5,7.2,9.2c0-0.3,0.3-0.5,1-0.5
					c0.4,0,0.8,0.1,1.2,0.2l0.2,0.1l0.2-1.4c-0.5-0.2-1-0.3-1.5-0.3c-1.6,0-2.8,0.9-2.8,2.1c0,0.9,0.8,1.4,1.5,1.7
					c0.6,0.3,0.9,0.5,0.9,0.8c0,0.4-0.5,0.6-1,0.6c-0.5,0-1.1-0.1-1.6-0.3L5,12l-0.2,1.4c0.6,0.2,1.2,0.3,1.9,0.3
					c1.7,0,2.9-0.8,2.9-2.1C9.6,10.9,9.1,10.4,8.2,9.9L8.2,9.9z M14,7.3h-1.3c-0.4,0-0.7,0.2-0.9,0.5l-2.5,5.9h1.7l0.5-1.3h1.9
					l0.2,1.3h1.5L14,7.3z M12.1,11.2c0,0,0.7-2.1,0.7-2.1l0.5,2.1H12.1z M0.7,7.3l-1.6,4.4l-0.2-0.9c-0.4-1.1-1.2-2.1-2.3-2.6
					l1.5,5.6h1.8l2.6-6.5L0.7,7.3L0.7,7.3z"/>
			</g>
		</g>
		<path id="Caminho_2253" class="st1" d="M3.9,108.4c-0.1-0.5-0.6-0.8-1.1-0.8H0.2l0,0.1c2,0.5,3.7,2,4.2,3.5L3.9,108.4z"/>
	</g>
</g>
</svg>
