<?xml version="1.0" encoding="utf-8"?>
<!-- Generator: Adobe Illustrator 23.0.2, SVG Export Plug-In . SVG Version: 6.00 Build 0)  -->
<svg version="1.1" id="Camada_1" xmlns="http://www.w3.org/2000/svg" xmlns:xlink="http://www.w3.org/1999/xlink" x="0px" y="0px"
	 viewBox="0 0 21.1 21.1" style="enable-background:new 0 0 21.1 21.1;" xml:space="preserve">
<style type="text/css">
</style>
<g id="Grupo_3421">
	<path id="Caminho_5552" class="st0" d="M3.3,9.5v2.1c0,0.6,0.5,1,1,1c0,0,0,0,0,0h2.1c0.6,0,1-0.5,1-1c0,0,0,0,0,0V9.5
		c0-0.6-0.5-1-1-1c0,0,0,0,0,0H4.3C3.7,8.4,3.3,8.9,3.3,9.5C3.3,9.5,3.3,9.5,3.3,9.5z M12.3,13.9c-0.2-0.2-0.4-0.3-0.7-0.3H9.5
		c-0.3,0-0.5,0.1-0.7,0.3c-0.2,0.2-0.3,0.5-0.3,0.7v2.1c0,0.3,0.1,0.5,0.3,0.7c0.2,0.2,0.4,0.3,0.7,0.3h2.1c0.3,0,0.5-0.1,0.7-0.3
		c0.2-0.2,0.3-0.5,0.3-0.7v-2.1C12.6,14.4,12.5,14.1,12.3,13.9L12.3,13.9z M4.8,5.3c-0.3,0-0.5-0.2-0.5-0.5V0.7
		c0-0.1,0.1-0.3,0.2-0.4c0.1-0.1,0.2-0.1,0.4-0.1c0.1,0,0.3,0.1,0.4,0.1c0.1,0.1,0.2,0.2,0.2,0.4v4.2c0,0.1-0.1,0.3-0.2,0.4
		C5.1,5.3,5,5.3,4.8,5.3L4.8,5.3z M19.8,2.2c0.6,0,1,0.5,1,1c0,0,0,0,0,0v16.5c0,0.6-0.5,1-1,1c0,0,0,0,0,0H1.2c-0.6,0-1-0.5-1-1
		c0,0,0,0,0,0V3.3c0-0.6,0.5-1,1-1c0,0,0,0,0,0h2.1v1H1.2v16.6h18.6V3.3h-2.1v-1L19.8,2.2z M7.1,13.9c-0.2-0.2-0.5-0.3-0.7-0.3H4.3
		c-0.6,0-1,0.5-1,1c0,0,0,0,0,0v2.1c0,0.6,0.5,1,1,1c0,0,0,0,0,0h2.1c0.6,0,1-0.5,1-1c0,0,0,0,0,0v-2.1C7.4,14.4,7.3,14.1,7.1,13.9
		L7.1,13.9z M16.2,5.3c-0.1,0-0.3-0.1-0.4-0.2c-0.1-0.1-0.2-0.2-0.2-0.4V0.7c0-0.1,0.1-0.3,0.2-0.4c0.1-0.1,0.2-0.1,0.4-0.1
		c0.1,0,0.3,0.1,0.4,0.1c0.1,0.1,0.2,0.2,0.2,0.4v4.2C16.7,5.1,16.5,5.3,16.2,5.3z M17.5,13.9c-0.2-0.2-0.5-0.3-0.7-0.3h-2.1
		c-0.6,0-1,0.5-1,1c0,0,0,0,0,0v2.1c0,0.6,0.5,1,1,1c0,0,0,0,0,0h2.1c0.6,0,1-0.5,1-1c0,0,0,0,0,0v-2.1
		C17.8,14.4,17.7,14.1,17.5,13.9L17.5,13.9z M17.8,9.5c0-0.6-0.5-1-1-1c0,0,0,0,0,0h-2.1c-0.6,0-1,0.5-1,1c0,0,0,0,0,0v2.1
		c0,0.6,0.5,1,1,1c0,0,0,0,0,0h2.1c0.6,0,1-0.5,1-1c0,0,0,0,0,0V9.5z M12.6,9.5c0-0.3-0.1-0.5-0.3-0.7c-0.2-0.2-0.4-0.3-0.7-0.3H9.5
		C9.2,8.4,9,8.5,8.8,8.7C8.6,8.9,8.5,9.2,8.5,9.5v2.1c0,0.3,0.1,0.5,0.3,0.7c0.2,0.2,0.4,0.3,0.7,0.3h2.1c0.3,0,0.5-0.1,0.7-0.3
		c0.2-0.2,0.3-0.5,0.3-0.7L12.6,9.5z M14.7,3.3H6.4v-1h8.3V3.3z"/>
</g>
</svg>
