<?xml version="1.0" encoding="utf-8"?>
<!-- Generator: Adobe Illustrator 23.0.2, SVG Export Plug-In . SVG Version: 6.00 Build 0)  -->
<svg version="1.1" id="Camada_1" xmlns="http://www.w3.org/2000/svg" xmlns:xlink="http://www.w3.org/1999/xlink" x="0px" y="0px"
	 viewBox="0 0 21.1 21.1" style="enable-background:new 0 0 21.1 21.1;" xml:space="preserve">
<style type="text/css">
	.st0{fill:#E2574C;}
	.st1{fill:#F4B459;}
	.st2{enable-background:new    ;}
	.st3{fill:#383962;}
</style>
<g id="mastercard" transform="translate(284 277.398)">
	<path id="Caminho_2250" class="st0" d="M-271.4-269.2c0,2.7-2.2,4.9-4.9,4.9c-2.7,0-4.9-2.2-4.9-4.9c0-2.7,2.2-4.9,4.9-4.9
		C-273.6-274.2-271.4-272-271.4-269.2C-271.4-269.2-271.4-269.2-271.4-269.2z"/>
	<path id="Caminho_2251" class="st1" d="M-270.4-274.2c-1.1,0-2.1,0.3-2.9,1h0c0.2,0.1,0.3,0.3,0.5,0.4l-1,0
		c-0.2,0.2-0.3,0.3-0.4,0.5h1.8c0.1,0.2,0.3,0.3,0.4,0.5h-2.5c-0.1,0.2-0.2,0.3-0.3,0.5h3.1c0.1,0.2,0.2,0.3,0.2,0.5h-3.5
		c-0.1,0.2-0.1,0.3-0.1,0.5h3.7c0,0.2,0.1,0.3,0.1,0.5h-3.9c0,0.2,0,0.3,0,0.5h3.9c0,0.2,0,0.3,0,0.5h-3.9c0,0.2,0,0.3,0.1,0.5h3.7
		c0,0.2-0.1,0.3-0.1,0.5h-3.5c0.1,0.2,0.1,0.3,0.2,0.5h3.1c-0.1,0.2-0.2,0.3-0.3,0.5h-2.5c0.1,0.2,0.2,0.3,0.3,0.5l1.8,0
		c-0.2,0.2-0.3,0.3-0.5,0.5c0,0-0.3,0-0.9,0c1.9,2,5,2,7,0.1s2-5,0.1-7C-267.8-273.6-269.1-274.2-270.4-274.2L-270.4-274.2z"/>
</g>
<g class="st2">
	<path class="st3" d="M2.7,17.8V16L2,17.4H1.7L1,16v1.8H0.4v-2.7H1l0.8,1.5l0.8-1.5h0.6v2.7H2.7z"/>
	<path class="st3" d="M4.2,17.9c-0.1,0-0.2,0-0.3,0c-0.1,0-0.2-0.1-0.2-0.1c-0.1-0.1-0.1-0.1-0.1-0.2c0-0.1-0.1-0.2-0.1-0.3
		c0-0.1,0-0.2,0.1-0.3s0.1-0.1,0.2-0.2c0.1-0.1,0.2-0.1,0.3-0.1c0.1,0,0.2,0,0.3,0c0.1,0,0.2,0,0.3,0c0.1,0,0.2,0,0.2,0.1v-0.1
		c0-0.1,0-0.2-0.1-0.3s-0.2-0.1-0.3-0.1c-0.1,0-0.2,0-0.3,0.1c-0.1,0-0.2,0.1-0.3,0.2l-0.2-0.3c0.3-0.2,0.5-0.3,0.8-0.3
		c0.3,0,0.5,0.1,0.7,0.2c0.2,0.1,0.2,0.3,0.2,0.6v0.6c0,0.1,0,0.1,0,0.1c0,0,0.1,0,0.1,0v0.4c-0.1,0-0.2,0-0.2,0
		c-0.1,0-0.2,0-0.2-0.1S5,17.7,5,17.6l0-0.1c-0.1,0.1-0.2,0.2-0.3,0.3C4.5,17.8,4.4,17.9,4.2,17.9z M4.4,17.5c0.1,0,0.2,0,0.2,0
		s0.1-0.1,0.2-0.1c0.1,0,0.1-0.1,0.1-0.1V17c-0.1,0-0.1,0-0.2-0.1s-0.1,0-0.2,0c-0.1,0-0.2,0-0.3,0.1S4,17.1,4,17.2
		c0,0.1,0,0.2,0.1,0.2C4.2,17.5,4.3,17.5,4.4,17.5z"/>
	<path class="st3" d="M6.6,17.9c-0.2,0-0.3,0-0.5-0.1c-0.2-0.1-0.3-0.1-0.4-0.2l0.2-0.3c0.1,0.1,0.2,0.2,0.4,0.2
		c0.1,0,0.2,0.1,0.3,0.1c0.1,0,0.2,0,0.2-0.1s0.1-0.1,0.1-0.2s0-0.1-0.1-0.2c-0.1,0-0.2-0.1-0.3-0.1c-0.1,0-0.2-0.1-0.3-0.1
		c-0.1,0-0.2-0.1-0.2-0.1c-0.1,0-0.1-0.1-0.1-0.1s0-0.1,0-0.2c0-0.1,0-0.2,0.1-0.3C5.9,16.1,5.9,16,6,16c0.1-0.1,0.2-0.1,0.3-0.1
		c0.1,0,0.2,0,0.3,0c0.2,0,0.3,0,0.4,0.1c0.1,0,0.3,0.1,0.4,0.2l-0.2,0.3c-0.1-0.1-0.2-0.1-0.3-0.2c-0.1,0-0.2-0.1-0.3-0.1
		c-0.1,0-0.2,0-0.2,0.1c-0.1,0-0.1,0.1-0.1,0.2c0,0,0,0.1,0,0.1c0,0,0,0,0.1,0.1c0,0,0.1,0,0.1,0.1s0.1,0,0.2,0.1
		c0.1,0,0.3,0.1,0.4,0.1c0.1,0,0.2,0.1,0.2,0.1c0.1,0,0.1,0.1,0.1,0.2s0,0.1,0,0.2c0,0.2-0.1,0.4-0.2,0.5S6.9,17.9,6.6,17.9z"/>
	<path class="st3" d="M9,17.7c-0.1,0-0.2,0.1-0.3,0.1c-0.1,0-0.2,0-0.3,0c-0.1,0-0.1,0-0.2,0s-0.1,0-0.2-0.1c0,0-0.1-0.1-0.1-0.2
		c0-0.1,0-0.1,0-0.2v-1.1H7.6v-0.4h0.3v-0.6h0.5v0.6h0.4v0.4H8.4v1c0,0.1,0,0.1,0.1,0.2c0,0,0.1,0,0.1,0c0.1,0,0.1,0,0.2,0
		c0.1,0,0.1,0,0.1,0L9,17.7z"/>
	<path class="st3" d="M10.1,17.9c-0.2,0-0.3,0-0.4-0.1s-0.2-0.1-0.3-0.2c-0.1-0.1-0.2-0.2-0.2-0.3c0-0.1-0.1-0.3-0.1-0.4
		c0-0.1,0-0.3,0.1-0.4c0-0.1,0.1-0.2,0.2-0.3s0.2-0.2,0.3-0.2c0.1-0.1,0.3-0.1,0.4-0.1c0.2,0,0.3,0,0.4,0.1c0.1,0.1,0.2,0.1,0.3,0.2
		c0.1,0.1,0.2,0.2,0.2,0.3c0,0.1,0.1,0.3,0.1,0.4c0,0,0,0.1,0,0.1c0,0,0,0.1,0,0.1H9.6c0,0.1,0,0.1,0.1,0.2c0,0.1,0.1,0.1,0.1,0.2
		s0.1,0.1,0.2,0.1c0.1,0,0.1,0,0.2,0c0.1,0,0.2,0,0.3-0.1c0.1,0,0.2-0.1,0.2-0.2l0.4,0.1c-0.1,0.2-0.2,0.3-0.4,0.4
		C10.5,17.8,10.3,17.9,10.1,17.9z M10.6,16.7c0-0.2-0.1-0.3-0.2-0.4c-0.1-0.1-0.2-0.1-0.4-0.1c-0.1,0-0.1,0-0.2,0
		c-0.1,0-0.1,0.1-0.2,0.1c0,0-0.1,0.1-0.1,0.2s0,0.1-0.1,0.2H10.6z"/>
	<path class="st3" d="M12.7,16.3c-0.2,0-0.3,0-0.4,0.1c-0.1,0.1-0.2,0.1-0.3,0.3v1.2h-0.5v-2h0.5v0.4c0-0.1,0.1-0.1,0.1-0.2
		s0.1-0.1,0.2-0.1c0.1,0,0.1-0.1,0.2-0.1c0.1,0,0.1,0,0.2,0c0,0,0,0,0.1,0s0,0,0,0V16.3z"/>
	<path class="st3" d="M12.7,16.8c0-0.1,0-0.3,0.1-0.4c0-0.1,0.1-0.2,0.2-0.3c0.1-0.1,0.2-0.2,0.3-0.2c0.1-0.1,0.3-0.1,0.4-0.1
		c0.2,0,0.4,0,0.6,0.1c0.2,0.1,0.3,0.2,0.3,0.4l-0.5,0.2c0-0.1-0.1-0.1-0.2-0.2s-0.1-0.1-0.2-0.1c-0.1,0-0.1,0-0.2,0
		s-0.1,0.1-0.2,0.1c0,0.1-0.1,0.1-0.1,0.2c0,0.1,0,0.2,0,0.2c0,0.1,0,0.2,0,0.2c0,0.1,0.1,0.1,0.1,0.2c0,0.1,0.1,0.1,0.2,0.1
		s0.1,0,0.2,0c0.1,0,0.2,0,0.3-0.1s0.1-0.1,0.2-0.2l0.5,0.2c-0.1,0.2-0.2,0.3-0.3,0.4c-0.2,0.1-0.3,0.1-0.6,0.1
		c-0.2,0-0.3,0-0.4-0.1s-0.2-0.1-0.3-0.2c-0.1-0.1-0.2-0.2-0.2-0.3S12.7,17,12.7,16.8z"/>
	<path class="st3" d="M15.6,17.9c-0.1,0-0.2,0-0.3,0c-0.1,0-0.2-0.1-0.2-0.1c-0.1-0.1-0.1-0.1-0.1-0.2c0-0.1-0.1-0.2-0.1-0.3
		c0-0.1,0-0.2,0.1-0.3s0.1-0.1,0.2-0.2c0.1-0.1,0.2-0.1,0.3-0.1c0.1,0,0.2,0,0.3,0c0.1,0,0.2,0,0.3,0c0.1,0,0.2,0,0.2,0.1v-0.1
		c0-0.1,0-0.2-0.1-0.3s-0.2-0.1-0.3-0.1c-0.1,0-0.2,0-0.3,0.1s-0.2,0.1-0.3,0.2L15,16.1c0.3-0.2,0.5-0.3,0.8-0.3
		c0.3,0,0.5,0.1,0.7,0.2c0.2,0.1,0.2,0.3,0.2,0.6v0.6c0,0.1,0,0.1,0,0.1c0,0,0,0,0.1,0v0.4c-0.1,0-0.2,0-0.2,0c-0.1,0-0.2,0-0.2-0.1
		c-0.1,0-0.1-0.1-0.1-0.2l0-0.1c-0.1,0.1-0.2,0.2-0.3,0.3C15.8,17.8,15.7,17.9,15.6,17.9z M15.7,17.5c0.1,0,0.2,0,0.2,0
		c0.1,0,0.1-0.1,0.2-0.1c0.1,0,0.1-0.1,0.1-0.1V17c-0.1,0-0.1,0-0.2-0.1c-0.1,0-0.1,0-0.2,0c-0.1,0-0.2,0-0.3,0.1
		c-0.1,0.1-0.1,0.1-0.1,0.2c0,0.1,0,0.2,0.1,0.2S15.6,17.5,15.7,17.5z"/>
	<path class="st3" d="M18.4,16.3c-0.2,0-0.3,0-0.4,0.1c-0.1,0.1-0.2,0.1-0.3,0.3v1.2h-0.5v-2h0.5v0.4c0-0.1,0.1-0.1,0.1-0.2
		c0-0.1,0.1-0.1,0.2-0.1c0.1,0,0.1-0.1,0.2-0.1s0.1,0,0.2,0c0,0,0,0,0.1,0c0,0,0,0,0,0V16.3z"/>
	<path class="st3" d="M19.4,17.9c-0.1,0-0.3,0-0.4-0.1s-0.2-0.1-0.3-0.2c-0.1-0.1-0.1-0.2-0.2-0.3c0-0.1-0.1-0.3-0.1-0.4
		c0-0.1,0-0.3,0.1-0.4c0-0.1,0.1-0.2,0.2-0.3c0.1-0.1,0.2-0.2,0.3-0.2c0.1-0.1,0.2-0.1,0.4-0.1c0.1,0,0.3,0,0.4,0.1s0.2,0.2,0.3,0.3
		V15h0.5v2.2c0,0.1,0,0.1,0,0.1c0,0,0,0,0.1,0v0.4c-0.1,0-0.2,0-0.2,0c-0.1,0-0.2,0-0.2-0.1s-0.1-0.1-0.1-0.2l0-0.1
		c-0.1,0.1-0.2,0.2-0.3,0.3C19.7,17.8,19.5,17.9,19.4,17.9z M19.5,17.4c0,0,0.1,0,0.1,0c0.1,0,0.1,0,0.1-0.1c0,0,0.1-0.1,0.1-0.1
		c0,0,0.1-0.1,0.1-0.1v-0.5c0-0.1,0-0.1-0.1-0.2s-0.1-0.1-0.1-0.1c0,0-0.1-0.1-0.1-0.1c-0.1,0-0.1,0-0.2,0c-0.1,0-0.1,0-0.2,0
		c-0.1,0-0.1,0.1-0.2,0.1S19,16.5,19,16.6c0,0.1,0,0.2,0,0.2c0,0.1,0,0.2,0,0.2s0.1,0.1,0.1,0.2c0,0.1,0.1,0.1,0.2,0.1
		C19.4,17.4,19.5,17.4,19.5,17.4z"/>
</g>
</svg>
